<svg width="1188" height="1044" viewBox="0 0 1188 1044" fill="none" xmlns="http://www.w3.org/2000/svg">
<g clip-path="url(#clip0)">
<path d="M351.23 139.783C392.307 128.776 434.529 153.153 445.535 194.23C456.542 235.307 432.165 277.529 391.088 288.535C350.011 299.542 307.789 275.165 296.783 234.088C285.776 193.011 310.153 150.789 351.23 139.783Z" fill="#E1E5F0"/>
<path d="M135.29 365.267L317.648 612.493L398.93 553.261L289.345 349.622L135.29 365.267ZM0.749792 167.882L91.2166 301.003L142.057 150.465L0.749792 167.882ZM113.722 317.195L263.932 309.821L217.086 134.989L171.382 147.235L113.722 317.195ZM309.768 342.963L429.096 529.432L485.897 486.647L399.236 337.125L309.768 342.963ZM446.941 331.382L523.231 467.982L602.918 408.113L586.703 313.098L446.941 331.382ZM639.043 457.48L736.043 454.025L738.715 392L624.582 402L639.043 457.48ZM758.954 452.176L845.506 457.48L854 396L758.954 392L758.954 452.176ZM621.921 383.792L751.055 370.306L870 378.363L898.609 288.202L613.171 310.122L621.921 383.792ZM484.469 271.716L589.965 267.47L568.324 186.705L479.687 196.597L484.469 271.716ZM481.305 173.775L561.678 164.076L564.578 95.5212L459.983 110.858L481.305 173.775ZM626.138 258.127L750.002 243.707L732.564 64.1695L612.103 83.9539L626.138 258.127ZM771.153 239.429L910.25 229.865L931.566 107.452L758.235 61.6102L771.153 239.429ZM355.306 152.82C321.697 161.826 301.753 196.371 310.758 229.979C319.763 263.588 354.309 283.532 387.917 274.527C421.525 265.522 441.47 230.976 432.465 197.368C423.459 163.76 388.914 143.815 355.306 152.82ZM874.27 454.604L979.804 424.726C982.737 423.896 984.795 421.264 984.894 418.218C985.019 414.354 981.988 411.12 978.124 410.994L877.326 407.725L874.27 454.604Z" fill="white"/>
<path d="M494.662 444.294C496.708 447.896 495.448 452.474 491.847 454.521C488.246 456.567 483.667 455.307 481.621 451.706L468.28 428.232C466.234 424.63 467.494 420.052 471.095 418.005C474.696 415.959 479.275 417.219 481.321 420.82L494.662 444.294ZM467.981 397.346C470.027 400.947 468.767 405.526 465.166 407.572C461.565 409.619 456.986 408.359 454.94 404.758L441.599 381.284C439.553 377.682 440.813 373.104 444.414 371.057C448.015 369.011 452.594 370.271 454.64 373.872L467.981 397.346ZM441.207 350.402C443.274 353.991 442.04 358.577 438.451 360.644C434.861 362.711 430.276 361.477 428.208 357.888L414.733 334.491C412.666 330.901 413.9 326.316 417.49 324.248C421.079 322.181 425.665 323.415 427.732 327.005L441.207 350.402ZM410.105 315.638C405.984 316.048 402.309 313.04 401.899 308.918C401.488 304.796 404.497 301.122 408.618 300.711L435.485 298.035C439.607 297.624 443.281 300.632 443.692 304.754C444.103 308.876 441.094 312.55 436.972 312.961L410.105 315.638ZM463.839 310.284C459.718 310.694 456.043 307.686 455.633 303.564C455.222 299.443 458.231 295.768 462.352 295.358L489.219 292.681C493.341 292.27 497.015 295.279 497.426 299.4C497.837 303.522 494.828 307.196 490.706 307.607L463.839 310.284ZM517.573 304.93C513.452 305.341 509.777 302.332 509.367 298.211C508.956 294.089 511.964 290.415 516.086 290.004L542.953 287.327C547.075 286.916 550.749 289.925 551.16 294.047C551.57 298.168 548.562 301.843 544.44 302.253L517.573 304.93ZM571.307 299.576C567.186 299.987 563.511 296.979 563.101 292.857C562.69 288.735 565.698 285.061 569.82 284.65L596.687 281.973C600.809 281.563 604.483 284.571 604.894 288.693C605.304 292.815 602.296 296.489 598.174 296.9L571.307 299.576ZM625.041 294.223C620.92 294.633 617.245 291.625 616.835 287.503C616.424 283.381 619.432 279.707 623.554 279.297L650.421 276.62C654.543 276.209 658.217 279.217 658.628 283.339C659.038 287.461 656.03 291.135 651.908 291.546L625.041 294.223ZM678.775 288.869C674.654 289.28 670.979 286.271 670.569 282.149C670.158 278.028 673.166 274.354 677.288 273.943L704.155 271.266C708.277 270.855 711.951 273.864 712.362 277.985C712.772 282.107 709.764 285.781 705.642 286.192L678.775 288.869ZM732.509 283.515C728.387 283.926 724.713 280.917 724.303 276.796C723.892 272.674 726.9 269 731.022 268.589L757.889 265.912C762.011 265.502 765.685 268.51 766.096 272.632C766.506 276.753 763.498 280.428 759.376 280.838L732.509 283.515ZM786.097 278.673C781.967 278.98 778.37 275.879 778.063 271.749C777.757 267.618 780.857 264.021 784.988 263.714L811.914 261.717C816.045 261.411 819.642 264.511 819.948 268.642C820.254 272.773 817.154 276.37 813.023 276.676L786.097 278.673ZM839.949 274.679C835.819 274.985 832.222 271.885 831.915 267.754C831.609 263.623 834.709 260.026 838.84 259.72L865.766 257.723C869.897 257.416 873.494 260.517 873.8 264.647C874.107 268.778 871.006 272.375 866.876 272.682L839.949 274.679ZM893.802 270.684C889.671 270.991 886.074 267.89 885.767 263.76C885.461 259.629 888.561 256.032 892.692 255.725L900.965 255.112L901.146 255.101L919.826 254.167C923.963 253.96 927.484 257.146 927.691 261.283C927.898 265.42 924.712 268.941 920.575 269.148L901.895 270.082L902.075 270.071L893.802 270.684ZM935.157 239.551C934.412 243.625 930.505 246.324 926.43 245.579C922.356 244.834 919.657 240.927 920.402 236.852L925.26 210.293C926.005 206.218 929.912 203.519 933.987 204.264C938.061 205.009 940.76 208.917 940.015 212.991L935.157 239.551ZM944.872 186.432C944.127 190.506 940.22 193.205 936.145 192.46C932.071 191.715 929.372 187.808 930.117 183.733L934.974 157.174C935.72 153.099 939.627 150.4 943.701 151.145C947.776 151.89 950.475 155.798 949.73 159.872L944.872 186.432ZM482.001 509C470.403 509 461.001 499.598 461.001 488C461.001 476.402 470.403 467 482.001 467C493.599 467 503.001 476.402 503.001 488C503.001 499.598 493.599 509 482.001 509ZM931.001 135C919.403 135 910.001 125.598 910.001 114C910.001 102.402 919.403 93 931.001 93C942.599 93 952.001 102.402 952.001 114C952.001 125.598 942.599 135 931.001 135Z" fill="#84C1FF"/>
<path d="M379.372 222.611C410.457 170.464 426 135.274 426 117.042C426 87.7478 402.047 64 372.5 64C342.953 64 319 87.7478 319 117.042C319 135.274 334.543 170.464 365.628 222.611H365.628C367.891 226.406 372.801 227.649 376.596 225.386C377.738 224.706 378.691 223.752 379.372 222.611Z" fill="#84C1FF"/>
<path d="M373 154C390.121 154 404 139.897 404 122.5C404 105.103 390.121 91 373 91C355.879 91 342 105.103 342 122.5C342 139.897 355.879 154 373 154Z" fill="white"/>
</g>
<path d="M138 557.555H479.695V809.56C479.695 811.766 477.897 813.555 475.694 813.555H142C139.791 813.555 138 811.766 138 809.56V557.555Z" fill="#F2F6FB"/>
<path d="M169.472 626.246C169.472 624.041 171.256 622.254 173.476 622.254H201.436C203.647 622.254 205.44 624.04 205.44 626.246V654.273C205.44 656.477 203.656 658.264 201.436 658.264H173.476C171.265 658.264 169.472 656.478 169.472 654.273V626.246ZM169.472 687.012C169.472 684.807 171.256 683.02 173.476 683.02H201.436C203.647 683.02 205.44 684.806 205.44 687.012V715.039C205.44 717.243 203.656 719.03 201.436 719.03H173.476C171.265 719.03 169.472 717.244 169.472 715.039V687.012ZM230.168 626.246C230.168 624.041 231.951 622.254 234.172 622.254H262.132C264.343 622.254 266.136 624.04 266.136 626.246V654.273C266.136 656.477 264.352 658.264 262.132 658.264H234.172C231.96 658.264 230.168 656.478 230.168 654.273V626.246ZM230.168 687.012C230.168 684.807 231.951 683.02 234.172 683.02H262.132C264.343 683.02 266.136 684.806 266.136 687.012V715.039C266.136 717.243 264.352 719.03 262.132 719.03H234.172C231.96 719.03 230.168 717.244 230.168 715.039V687.012ZM290.863 626.246C290.863 624.041 292.647 622.254 294.867 622.254H322.827C325.039 622.254 326.831 624.04 326.831 626.246V654.273C326.831 656.477 325.048 658.264 322.827 658.264H294.867C292.656 658.264 290.863 656.478 290.863 654.273V626.246ZM290.863 687.012C290.863 684.807 292.647 683.02 294.867 683.02H322.827C325.039 683.02 326.831 684.806 326.831 687.012V715.039C326.831 717.243 325.048 719.03 322.827 719.03H294.867C292.656 719.03 290.863 717.244 290.863 715.039V687.012ZM351.559 626.246C351.559 624.041 353.343 622.254 355.563 622.254H383.523C385.734 622.254 387.527 624.04 387.527 626.246V654.273C387.527 656.477 385.743 658.264 383.523 658.264H355.563C353.352 658.264 351.559 656.478 351.559 654.273V626.246ZM412.255 626.246C412.255 624.041 414.039 622.254 416.259 622.254H444.219C446.43 622.254 448.223 624.04 448.223 626.246V654.273C448.223 656.477 446.439 658.264 444.219 658.264H416.259C414.048 658.264 412.255 656.478 412.255 654.273V626.246ZM412.255 687.012C412.255 684.807 414.039 683.02 416.259 683.02H444.219C446.43 683.02 448.223 684.806 448.223 687.012V715.039C448.223 717.243 446.439 719.03 444.219 719.03H416.259C414.048 719.03 412.255 717.244 412.255 715.039V687.012ZM169.472 747.778C169.472 745.574 171.256 743.787 173.476 743.787H201.436C203.647 743.787 205.44 745.572 205.44 747.778V775.805C205.44 778.009 203.656 779.796 201.436 779.796H173.476C171.265 779.796 169.472 778.01 169.472 775.805V747.778ZM230.168 747.778C230.168 745.574 231.951 743.787 234.172 743.787H262.132C264.343 743.787 266.136 745.572 266.136 747.778V775.805C266.136 778.009 264.352 779.796 262.132 779.796H234.172C231.96 779.796 230.168 778.01 230.168 775.805V747.778ZM290.863 747.778C290.863 745.574 292.647 743.787 294.867 743.787H322.827C325.039 743.787 326.831 745.572 326.831 747.778V775.805C326.831 778.009 325.048 779.796 322.827 779.796H294.867C292.656 779.796 290.863 778.01 290.863 775.805V747.778ZM351.559 747.778C351.559 745.574 353.343 743.787 355.563 743.787H383.523C385.734 743.787 387.527 745.572 387.527 747.778V775.805C387.527 778.009 385.743 779.796 383.523 779.796H355.563C353.352 779.796 351.559 778.01 351.559 775.805V747.778ZM412.255 747.778C412.255 745.574 414.039 743.787 416.259 743.787H444.219C446.43 743.787 448.223 745.572 448.223 747.778V775.805C448.223 778.009 446.439 779.796 444.219 779.796H416.259C414.048 779.796 412.255 778.01 412.255 775.805V747.778ZM138 550.006C138 547.793 139.797 546 142 546H475.694C477.904 546 479.695 547.787 479.695 550.006V600.177H138V550.006ZM254.648 564.059C253.543 564.059 252.648 564.954 252.648 566.059V580.118C252.648 581.222 253.543 582.118 254.648 582.118H363.047C364.152 582.118 365.047 581.222 365.047 580.118V566.059C365.047 564.954 364.152 564.059 363.047 564.059H254.648Z" fill="#D8DEED"/>
<path d="M383.527 683.021H355.56C353.35 683.021 351.56 684.811 351.56 687.021V715.03C351.56 717.239 353.35 719.03 355.56 719.03H383.527C385.737 719.03 387.527 717.239 387.527 715.03V687.021C387.527 684.811 385.737 683.021 383.527 683.021Z" fill="#84C1FF"/>
<g clip-path="url(#clip1)">
<g clip-path="url(#clip2)">
<g clip-path="url(#clip3)">
<path d="M551.537 1047.12C551.204 1047.04 550.857 1047 550.5 1047H388.209C388.101 1046.45 388.047 1045.76 388.062 1044.87C388.174 1044.17 388.188 1043.37 388.402 1042.57C389.686 1037.8 391.241 1034.62 395.791 1031.8C400.341 1028.98 404.986 1026.46 409.825 1024.25C427.675 1015.86 433.774 1015.96 445.51 1008.27C450.367 1005.05 454.832 1001.33 459.003 997.3C461.784 994.615 467.461 990.252 476.034 984.212L563 985.63L551.537 1047.12ZM876.547 1047.03C876.367 1047.01 876.185 1047 876 1047H773.844L781.927 995.987L853.527 986.287L876.547 1047.03Z" fill="#444444"/>
<path d="M667.691 660.688C644.334 732.9 626.592 787.823 602.046 863.694L587.006 924.969C585.91 931.057 579.635 935.148 573.16 934.051L497.061 921.177C490.586 920.079 486.203 914.191 487.399 908.104C490.287 893.633 492.778 880.859 494.869 870.081C498.455 851.918 500.148 843.136 502.141 831.959C503.336 825.173 504.332 819.485 504.93 815.693C528.038 691.446 549.354 596.041 560.909 544.147C565.789 521.893 575.152 479.879 607.325 437.266C609.417 434.571 611.11 432.476 612.107 431.178C613.595 429.655 615.168 428.326 616.792 427.168C616.755 426.81 616.718 426.453 616.682 426.095C624.782 420.295 631.6 413.4 664 411.5C664.8 411.5 665.7 411.4 666.5 411.4C697.9 410.3 727 426.8 741.2 453.1L765.5 498C769 504.4 771.5 511.2 772.9 518.2L856.182 913.836C857.271 919.008 854.147 924.134 849.05 925.537L770.7 947.1C764.3 948.8 757.6 945.3 755.8 939.4L749.7 919.8C731.1 867.3 712.9 812.4 695.4 755.4C685.584 723.331 676.363 691.745 667.691 660.688Z" fill="#FFCB3D"/>
<path d="M747.781 513.795C747.781 513.795 724.384 581.064 739.824 582.552C739.824 582.552 748.363 576.738 753.3 560.568L757.331 530.919L747.781 513.795Z" fill="#482D1F"/>
<path opacity="0.2" d="M621.476 424C621.238 424.173 620.999 424.346 620.759 424.517C623.958 455.802 628.475 484.393 631.774 515.678C631.827 515.865 631.88 516.051 631.933 516.238C631.945 516.602 631.967 516.936 632 517.236C632.93 525.752 644.907 573.818 667.933 661.434C641.04 744.564 628.738 780.336 601.844 863.466L586.803 924.74C585.708 930.828 579.433 934.92 572.958 933.822L496.858 920.948C490.384 919.85 486.001 913.962 487.197 907.875C490.085 893.404 492.575 880.631 494.667 869.853C498.253 851.69 499.946 842.908 501.938 831.73C503.134 824.944 504.13 819.256 504.727 815.464C527.836 691.218 549.152 595.813 560.706 543.919C565.587 521.664 574.95 479.65 607.123 437.037C609.215 434.343 610.908 432.247 611.904 430.95C614.852 427.933 618.133 425.679 621.476 424V424Z" fill="#8C2A00"/>
<path d="M637.083 266.493C640.627 265.471 644.337 264.695 648.197 264.195L653.854 263.501C660.869 262.597 667.422 262.949 673.462 264.294C674.178 264.197 674.917 264.107 675.679 264.024C685.979 262.927 700.179 263.326 713.479 270.41C715.279 271.408 719.329 274.74 723 278C733.946 287.721 731.579 285.875 744.979 308.724C748.279 314.311 752.419 320.544 755.519 327.329C755.542 327.148 755.571 327.508 755.519 327.329C756.011 328.685 756.279 330.147 756.279 331.673C756.279 338.726 750.569 345 743.5 345C737.482 345 731.868 341.084 730.5 335.5C730.779 336.548 730.879 337.022 730.879 338.158C730.879 343.688 727.928 348.724 723 350.5L726.271 381.474C726.306 382.575 726.328 383.578 726.462 384.667C726.971 389.631 726.977 397.069 723.366 402.941C718.335 411.199 710.839 423.177 673.965 428.107C634.311 433.377 623.445 423.654 616.343 416.685C611.431 411.96 609.561 405.756 608.829 400.619C608.695 399.529 608.475 398.551 608.242 397.474L598.369 352.477C597.231 358.368 592.037 362.818 585.8 362.818C578.731 362.818 573 357.1 573 350.047C573 346.944 574.109 344.1 575.953 341.887C576.769 336.896 577.584 332.365 578.4 328.296C584.1 300.957 590.6 292.077 590.6 292.077C593.9 287.487 597.1 284.494 598.6 283.097C609.6 272.72 623.2 268.629 633.4 267.033C634.686 266.81 635.917 266.633 637.083 266.493Z" fill="#FF5645"/>
<path d="M476.034 984.226L497.756 921.305L573.922 934.242L562.3 989.313L476.034 984.226ZM777.503 945.242L840.795 927.686L853.527 986.3L781.927 996L777.503 945.242ZM633.927 249.955C633.656 250.043 633.38 250.132 633.1 250.222C624.5 253.016 625 252.817 624.4 253.016C618 254.413 612.6 253.914 611.6 253.715C603.3 252.617 594.4 236.753 591.4 214.502C591.1 212.706 591.1 210.91 591 209.114L591.3 191.254C591.3 187.263 592.4 183.372 594.4 179.98C594.6 179.581 594.8 179.281 595 178.982C595.7 177.984 596.4 176.986 597.1 176.188C599.8 172.995 603 170.7 606.3 169.104C614.1 165.911 622.9 165.612 627.8 166.31C628.5 166.41 630.7 166.709 633.8 167.109C636.7 167.807 639.5 168.206 642.4 168.306C644 168.406 645.2 169.802 645.2 171.399C644.6 186.831 644.267 195.345 644.2 196.942C644.1 199.336 650.2 194.148 652.9 194.048C657.7 193.948 663.7 201.731 665.2 206.72C666.8 211.908 664.9 217.196 661.7 220.489C659.4 222.784 656.7 223.782 654.9 224.28C654.1 224.28 653.2 225.079 652.9 226.076C652.9 226.076 652.9 226.176 652.8 226.276L659 238.149C659.1 238.449 659.2 238.549 659.2 238.549C659.2 238.549 659.107 238.599 658.939 238.69L662.5 237.95L665.4 263.318C665.4 263.318 658.782 265.175 651.218 265.962C646.176 266.486 641.103 266.782 636.001 266.849L633.927 249.955ZM573.014 350.656C573.326 357.433 578.931 362.832 585.8 362.832C592.037 362.832 597.231 358.381 598.369 352.49L608.242 397.487C608.475 398.564 608.695 399.542 608.829 400.632C609.336 404.192 610.39 408.264 612.623 412.001C597.726 435.852 575.686 457.71 548.462 445.406C514.069 429.862 475.883 401.533 433.904 360.421C431.841 359.298 429.418 357.835 426.943 355.974C420.558 351.185 417.656 346.496 408.136 328.636C398.732 310.875 393.758 284.472 395.267 277.886C395.615 276.889 398.999 272.804 402.947 276.595C407.242 280.686 421.022 303.292 427.176 313.769C427.254 313.902 427.338 314.032 427.428 314.161C425.877 307.542 426.466 301.334 432.799 299.121C432.799 299.121 439.786 311.639 447.648 325.58C449.131 326.46 450.57 327.421 451.914 328.49C467.008 335.913 545.194 374.378 555.396 379.784L573.014 350.656ZM689.388 356.957C690.527 357.289 691.732 357.467 692.979 357.467C700.048 357.467 705.779 351.749 705.779 344.695C705.779 343.732 705.672 342.793 705.469 341.891L705.503 341.882C706.952 347.35 711.944 351.38 717.879 351.38C724.948 351.38 730.679 345.662 730.679 338.609C730.679 337.473 730.53 336.372 730.251 335.324L730.844 335.167C732.213 340.751 737.261 344.895 743.279 344.895C745.357 344.895 747.32 344.401 749.055 343.523C778.49 434.985 795.132 494.302 798.98 521.475C799.201 522.377 799.364 523.348 799.471 524.389C801.186 541.092 797.401 567.104 788.114 602.424C788.035 602.633 758.655 619.666 736.372 608.564L750.471 528.049L689.388 356.957Z" fill="#DB9E75"/>
<path opacity="0.176986" d="M636.001 266.836C612.128 274.151 595.997 292.669 592.535 312.456C591.579 317.801 591.963 323.384 593.215 328.658L598.319 351.924C597.603 358.3 592.181 363.256 585.6 363.256C578.531 363.256 572.8 357.538 572.8 350.485C572.8 347.342 573.938 344.42 575.825 342.147C576.814 335.625 577.088 334.282 578.2 328.733C583.9 301.395 590.4 292.514 590.4 292.514C593.7 287.925 597.034 284.688 598.534 283.291C609.534 272.914 622.368 268.826 632.568 267.23C633.715 267.031 634.871 266.909 636.001 266.836Z" fill="#444444"/>
<path opacity="0.2" d="M573.014 350.643C573.326 357.42 578.931 362.818 585.8 362.818C592.037 362.818 597.231 358.368 598.369 352.477L608.242 397.474C608.475 398.551 608.695 399.529 608.829 400.619C609.336 404.178 610.39 408.25 612.623 411.987C597.726 435.839 575.686 457.697 548.462 445.393C514.069 429.849 475.883 401.52 433.904 360.408C431.841 359.285 429.418 357.822 426.943 355.961C420.558 351.172 417.656 346.482 408.136 328.622C398.732 310.862 393.758 284.458 395.267 277.873C395.615 276.875 398.999 272.791 402.947 276.582C407.242 280.673 421.022 303.279 427.176 313.756C427.254 313.888 427.338 314.019 427.428 314.148C425.877 307.529 426.466 301.321 432.799 299.107C432.799 299.107 439.786 311.626 447.648 325.566C449.131 326.446 450.57 327.407 451.914 328.477C467.008 335.899 545.194 374.365 555.396 379.77L573.014 350.643Z" fill="#8C2A00"/>
<path d="M395.61 255.851C398.41 254.355 401.41 254.454 402.31 256.151L445.11 332.879C446.01 334.575 444.61 337.169 441.81 338.766C439.01 340.262 436.01 340.162 435.11 338.466L392.31 261.738C391.31 259.942 392.81 257.348 395.61 255.851Z" fill="#474961"/>
<path d="M651.592 223.62L652.1 223.669C653.4 223.369 657.5 222.771 660.7 219.478C663.9 216.285 665.8 210.997 664.1 205.809C662.6 200.82 657.8 196.729 653 196.829C650.3 196.929 648.1 198.226 647.8 198.425C644.3 200.72 642.7 203.913 642.7 203.913L641.707 206.153C641.358 205.603 641.021 205.087 640.7 204.611C633.7 196.829 626.7 189.146 619.6 181.363C615.6 182.361 609 183.259 601.5 181.463C599.1 180.865 597 179.667 595.2 178.669C595.9 177.672 596.6 176.674 597.3 175.876C600 172.683 603.2 170.388 606.5 168.792C614.3 165.599 623.1 165.299 628 165.998C628.7 166.098 630.9 166.397 634 166.796C634.9 166.896 635.8 166.996 636.9 167.095C639.5 167.295 641.5 167.494 642.7 167.594C657.9 168.592 663.8 166.896 671.4 171.086C672.8 171.885 676 173.78 678.7 177.273C682.899 182.751 684.171 188.953 684.357 194.103L684.4 194.035C684.4 194.035 691.9 219.977 681.9 233.048C678.914 236.95 676.927 240.07 675.608 242.527C677.89 244.073 680.517 245.949 683.3 248.114C690.5 253.901 684.7 265.375 675.8 262.981L664.98 260.044L663.661 248.291C651.824 241.422 651.829 227.271 651.965 224.317C651.841 224.085 651.717 223.853 651.592 223.62V223.62Z" fill="#482D1F"/>
<path d="M634.985 259.21L645.6 247L633.886 249.946L634.985 259.21Z" fill="#482D1F"/>
<path d="M597.9 212.893C598.1 214.589 598.5 217.582 597.7 218.879C596.4 220.975 592.9 216.185 593.5 212.793C593.8 211.396 594.5 210.797 595.3 210.797C596.6 210.698 597.7 211.596 597.9 212.893ZM619.4 210.997C619.6 212.693 620 215.687 619.2 216.984C617.9 219.079 614.4 214.29 615 210.897C615.3 209.5 616 208.902 616.8 208.902C618.1 208.802 619.2 209.7 619.4 210.997ZM602.804 213.102C602.854 212.552 603.34 212.147 603.89 212.196C604.44 212.246 604.846 212.732 604.796 213.282L603.9 223.17C603.9 223.296 604.037 223.467 604.077 223.47C604.754 223.522 605.17 223.522 606.877 223.489C607.685 223.474 608.241 223.467 608.9 223.467C609.452 223.467 609.9 223.915 609.9 224.467C609.9 225.019 609.452 225.467 608.9 225.467C608.257 225.467 607.711 225.474 606.916 225.489C605.134 225.523 604.691 225.523 604 225.467C602.823 225.467 601.9 224.316 601.904 223.08L602.804 213.102ZM610.4 231.152C609.4 231.551 606.2 232.748 605 231.551C604.5 231.052 603.6 229.356 603.6 229.356C603.6 229.356 606.3 229.356 609.5 228.857C611.3 228.558 612.6 228.159 613 228.657C613.1 228.757 613 229.057 613 229.256C612.8 230.254 611.1 230.952 610.4 231.152Z" fill="#482D1F"/>
<path d="M634.095 205.652L640.259 204.042C641.02 203.844 641.782 204.364 641.962 205.204C642.142 206.045 641.671 206.887 640.91 207.086L635.084 208.607C635.291 209.571 635.4 210.57 635.4 211.596C635.4 219.423 629.042 225.767 621.2 225.767C614.344 225.767 608.621 220.917 607.292 214.466L604.088 214.686C603.775 222.237 597.542 228.262 589.9 228.262C582.058 228.262 575.7 221.918 575.7 214.09C575.7 206.263 582.058 199.918 589.9 199.918C596.923 199.918 602.756 205.007 603.898 211.692L607.001 211.479C607.064 203.705 613.398 197.424 621.2 197.424C626.915 197.424 631.843 200.794 634.095 205.652ZM601.042 212.94C600.465 207.311 595.697 202.918 589.9 202.918C583.714 202.918 578.7 207.921 578.7 214.09C578.7 220.259 583.714 225.262 589.9 225.262C596.087 225.262 601.1 220.259 601.1 214.09C601.1 214.001 601.099 213.912 601.097 213.823C601.046 213.689 601.014 213.545 601.004 213.395C600.993 213.238 601.007 213.085 601.042 212.94ZM621.2 222.767C627.387 222.767 632.4 217.765 632.4 211.596C632.4 205.427 627.387 200.424 621.2 200.424C615.014 200.424 610 205.427 610 211.596C610 217.765 615.014 222.767 621.2 222.767Z" fill="#482D1F"/>
<path d="M756.468 575.451C756.57 574.629 757.319 574.045 758.141 574.146C758.963 574.248 759.547 574.997 759.445 575.819C758.807 580.972 758.184 584.961 756.697 593.828C755.217 602.654 754.598 606.613 753.967 611.71C753.865 612.532 753.116 613.116 752.294 613.014C751.472 612.913 750.888 612.164 750.99 611.341C751.628 606.188 752.251 602.2 753.738 593.332C755.218 584.507 755.837 580.547 756.468 575.451ZM776.395 569.654C776.548 568.84 777.332 568.303 778.146 568.456C778.96 568.609 779.496 569.392 779.344 570.207C778.301 575.773 777.59 580.105 776.083 589.768C774.572 599.46 773.857 603.813 772.807 609.419C772.654 610.233 771.87 610.77 771.056 610.617C770.242 610.464 769.706 609.681 769.858 608.866C770.901 603.3 771.612 598.968 773.119 589.305C774.631 579.613 775.345 575.26 776.395 569.654ZM678.602 345.32C678.58 345.297 678.559 345.273 678.539 345.248C674.759 340.625 671.246 334.98 668.426 328.537C668.094 327.778 668.44 326.893 669.199 326.561C669.958 326.229 670.842 326.575 671.174 327.334C673.881 333.519 677.25 338.932 680.861 343.349C681.107 343.649 681.217 344.015 681.198 344.374C681.448 344.642 681.6 345.001 681.6 345.396C681.6 345.716 681.633 346.043 681.702 346.432C681.733 346.603 681.77 346.786 681.819 347.013C681.847 347.142 681.949 347.597 681.952 347.615C682.898 351.21 685.651 354.076 689.174 355.247C689.96 355.509 690.385 356.358 690.124 357.144C689.862 357.93 689.013 358.356 688.227 358.094C683.753 356.606 680.255 352.962 679.036 348.316C679.041 348.338 678.921 347.802 678.888 347.652C678.831 347.389 678.786 347.17 678.748 346.954C678.651 346.404 678.6 345.907 678.6 345.396C678.6 345.371 678.601 345.346 678.602 345.32Z" fill="#482D1F"/>
</g>
</g>
</g>
<path d="M1168 680H795C783.954 680 775 688.954 775 700V785C775 796.046 783.954 805 795 805H1168C1179.05 805 1188 796.046 1188 785V700C1188 688.954 1179.05 680 1168 680Z" fill="#2281E4"/>
<path d="M1125.45 779.242C1105.52 779.242 1089.36 763.07 1089.36 743.121C1089.36 723.172 1105.52 707 1125.45 707C1145.38 707 1161.54 723.172 1161.54 743.121C1161.54 763.07 1145.38 779.242 1125.45 779.242ZM1125.43 742.633C1130.35 742.633 1134.33 738.699 1134.33 733.847C1134.33 728.994 1130.35 725.061 1125.43 725.061C1120.52 725.061 1116.53 728.994 1116.53 733.847C1116.53 738.699 1120.52 742.633 1125.43 742.633ZM1125.43 747.026C1116.52 747.026 1109.3 754.156 1109.3 762.951H1141.56C1141.56 754.156 1134.34 747.026 1125.43 747.026ZM813.459 739.509H1022.4C1023.5 739.509 1024.4 740.405 1024.4 741.509V751.958C1024.4 753.062 1023.5 753.958 1022.4 753.958H813.459C812.354 753.958 811.459 753.062 811.459 751.958V741.509C811.459 740.405 812.354 739.509 813.459 739.509ZM813.459 762.988H1040.44C1041.55 762.988 1042.44 763.883 1042.44 764.988V775.436C1042.44 776.541 1041.55 777.436 1040.44 777.436H813.459C812.354 777.436 811.459 776.541 811.459 775.436V764.988C811.459 763.883 812.354 762.988 813.459 762.988Z" fill="#84C1FF"/>
<path d="M1044.05 716.03H813.459C812.354 716.03 811.459 716.926 811.459 718.03V728.479C811.459 729.583 812.354 730.479 813.459 730.479H1044.05C1045.15 730.479 1046.05 729.583 1046.05 728.479V718.03C1046.05 716.926 1045.15 716.03 1044.05 716.03Z" fill="#D6EAFF"/>
<path d="M1048 571H675C663.954 571 655 579.954 655 591V676C655 687.046 663.954 696 675 696H1048C1059.05 696 1068 687.046 1068 676V591C1068 579.954 1059.05 571 1048 571Z" fill="#84C1FF"/>
<path d="M727.55 669.648C707.617 669.648 691.459 653.476 691.459 633.527C691.459 613.578 707.617 597.406 727.55 597.406C747.482 597.406 763.641 613.578 763.641 633.527C763.641 653.476 747.482 669.648 727.55 669.648ZM727.531 633.039C732.446 633.039 736.43 629.105 736.43 624.253C736.43 619.4 732.446 615.467 727.531 615.467C722.617 615.467 718.632 619.4 718.632 624.253C718.632 629.105 722.617 633.039 727.531 633.039ZM727.531 637.432C718.623 637.432 711.402 644.562 711.402 653.357H743.661C743.661 644.562 736.44 637.432 727.531 637.432ZM783.686 626.303H992.623C993.727 626.303 994.623 627.198 994.623 628.303V638.751C994.623 639.856 993.727 640.751 992.623 640.751H783.686C782.582 640.751 781.686 639.856 781.686 638.751V628.303C781.686 627.198 782.582 626.303 783.686 626.303ZM783.686 649.782H1028.71C1029.82 649.782 1030.71 650.677 1030.71 651.782V662.23C1030.71 663.335 1029.82 664.23 1028.71 664.23H783.686C782.582 664.23 781.686 663.335 781.686 662.23V651.782C781.686 650.677 782.582 649.782 783.686 649.782Z" fill="#2281E4"/>
<path d="M942.096 602.824H783.687C782.582 602.824 781.687 603.72 781.687 604.824V615.273C781.687 616.377 782.582 617.273 783.687 617.273H942.096C943.2 617.273 944.096 616.377 944.096 615.273V604.824C944.096 603.72 943.2 602.824 942.096 602.824Z" fill="#D6EAFF"/>
<defs>
<clipPath id="clip0">
<path d="M0 0H1027V673H0V0Z" fill="white"/>
</clipPath>
<clipPath id="clip1">
<path d="M172 97H1188V1044H172V97Z" fill="white"/>
</clipPath>
<clipPath id="clip2">
<rect x="223" y="52" width="1016" height="947" fill="white"/>
</clipPath>
<clipPath id="clip3">
<rect x="383" y="165" width="498" height="891" fill="white"/>
</clipPath>
</defs>
</svg>
